<svg width="30" height="30" viewBox="0 0 30 30" fill="none" xmlns="http://www.w3.org/2000/svg">
<path d="M5.19778 20.4842C5.06005 20.4842 4.92445 20.4191 4.83964 20.2976L4.316 19.5476C3.51511 18.4007 3.10335 17.0663 3.12522 15.6886C3.16689 13.0604 4.22344 10.6753 6.18058 8.79111C8.52113 6.53899 11.5989 5.29895 14.8474 5.29895H14.8538C17.3894 5.30015 19.8177 6.02899 21.8764 7.40659C23.9052 8.76428 25.4687 10.6762 26.3978 12.9356C26.4235 12.9983 26.4481 13.0608 26.4717 13.1236C27.2272 15.1321 26.9154 17.4026 25.6378 19.1974L24.8524 20.3008C24.7126 20.4971 24.4401 20.543 24.2438 20.4032C24.0475 20.2635 24.0016 19.991 24.1414 19.7947L24.9268 18.6913C26.0357 17.1335 26.3079 15.167 25.6549 13.4309C25.6343 13.3763 25.6128 13.3217 25.5905 13.2673C23.8191 8.95922 19.6045 6.17397 14.8534 6.17168C14.8516 6.17168 14.8493 6.17168 14.8475 6.17168C11.8256 6.17168 8.96305 7.32504 6.78587 9.41991C4.99989 11.1392 4.03585 13.3117 3.99794 15.7025C3.97902 16.8955 4.33645 18.0524 5.03164 19.048L5.55527 19.798C5.69327 19.9956 5.64494 20.2676 5.44733 20.4056C5.37118 20.4587 5.28407 20.4842 5.19778 20.4842Z" fill="black"/>
<path d="M20.4305 26.2982C20.3325 26.2982 20.234 26.2654 20.1526 26.1981C19.9669 26.0445 19.9409 25.7695 20.0945 25.5837C20.8497 24.6706 21.3543 23.5695 21.5539 22.3994C21.5896 22.1897 21.7713 22.0364 21.984 22.0364H22.0845C23.176 22.0364 24.0639 21.1468 24.0639 20.0535C24.0639 18.9422 23.1973 18.0717 22.091 18.0717C21.85 18.0717 21.6546 17.8763 21.6546 17.6353V16.6623C21.6546 15.4751 20.769 14.4652 19.5944 14.3133C17.9251 14.0971 16.7578 13.6793 15.9209 12.9985C15.4504 12.6157 15.0914 12.1558 14.8412 11.6123C14.5908 12.1558 14.2315 12.6157 13.7606 12.9986C12.9232 13.6793 11.7556 14.0971 10.086 14.3133C8.90718 14.4659 8.0182 15.4758 8.0182 16.6624V17.6354C8.0182 17.8764 7.82282 18.0717 7.58184 18.0717C6.53685 18.0717 5.62016 18.9951 5.62016 20.0477C5.62016 21.0181 6.3478 21.8584 7.31276 22.0024C7.55113 22.038 7.71547 22.2601 7.67991 22.4984C7.64435 22.7367 7.42207 22.9012 7.18393 22.8656C5.79487 22.6582 4.74744 21.4468 4.74744 20.0477C4.74744 18.6523 5.80742 17.4525 7.14547 17.2344V16.6624C7.14547 15.0385 8.36145 13.6566 9.97393 13.4479C13.1212 13.0402 14.405 11.8543 14.405 9.35433C14.405 9.11335 14.6004 8.91797 14.8413 8.91797C15.0823 8.91797 15.2777 9.11335 15.2777 9.35433C15.2777 11.8545 16.5607 13.0405 19.7064 13.4479C21.3146 13.6559 22.5273 15.0379 22.5273 16.6624V17.2309C23.9087 17.4357 24.9366 18.6021 24.9366 20.0535C24.9366 21.54 23.7965 22.7648 22.3458 22.8973C22.0852 24.0865 21.5435 25.2012 20.767 26.14C20.6807 26.2443 20.556 26.2982 20.4305 26.2982Z" fill="black"/>
<path d="M14.8471 28.9364C13.361 28.9364 11.9186 28.5088 10.6757 27.7C9.46707 26.9134 8.5056 25.8086 7.89529 24.5051C7.79307 24.2868 7.88721 24.027 8.10545 23.9248C8.32369 23.8226 8.58349 23.9168 8.68565 24.135C9.80307 26.5216 12.2216 28.0636 14.8471 28.0636C16.241 28.0636 17.582 27.6432 18.7249 26.8479C18.9227 26.7103 19.1946 26.759 19.3323 26.9568C19.4699 27.1546 19.4212 27.4266 19.2233 27.5643C17.9334 28.4619 16.4201 28.9364 14.8471 28.9364Z" fill="black"/>
<path d="M15.0991 24.5962C14.368 24.5962 13.6379 24.4352 12.9632 24.1142L12.8504 24.0606C12.6327 23.957 12.5402 23.6967 12.6437 23.479C12.7473 23.2614 13.0076 23.169 13.2252 23.2724L13.3381 23.3261C14.4003 23.8315 15.6296 23.856 16.7111 23.3932L17.01 23.2653C17.2317 23.1705 17.4881 23.2732 17.5829 23.4948C17.6777 23.7164 17.5749 23.9728 17.3534 24.0676L17.0544 24.1956C16.4297 24.4629 15.764 24.5962 15.0991 24.5962Z" fill="black"/>
<path d="M19.8669 7.27654C19.8171 7.27654 19.7666 7.26798 19.7171 7.24993C19.4908 7.16718 19.3744 6.9166 19.4571 6.69029C19.5792 6.35614 19.6412 6.0076 19.6412 5.65436C19.6412 3.60427 17.5591 1.93633 15 1.93633C12.4408 1.93633 10.3587 3.60422 10.3587 5.65436C10.3587 5.96664 10.4075 6.27711 10.5036 6.57722C10.577 6.80674 10.4505 7.05236 10.221 7.12589C9.99149 7.19942 9.74587 7.07287 9.67234 6.84334C9.54869 6.45711 9.48596 6.05707 9.48596 5.65436C9.48602 3.12302 11.9595 1.0636 15 1.0636C18.0403 1.0636 20.5139 3.12302 20.5139 5.65436C20.5139 6.11014 20.4341 6.55949 20.2767 6.98991C20.2121 7.1668 20.0449 7.27654 19.8669 7.27654Z" fill="black"/>
<path d="M7.9226 25.7239H7.38238C7.1414 25.7239 6.94601 25.5285 6.94601 25.2876C6.94601 24.7238 6.4874 24.2652 5.92367 24.2652C5.68269 24.2652 5.4873 24.0698 5.4873 23.8288V23.2886C5.4873 23.0476 5.68269 22.8523 5.92367 22.8523C6.4874 22.8523 6.94601 22.3936 6.94601 21.8299C6.94601 21.5889 7.1414 21.3936 7.38238 21.3936H7.9226C8.16358 21.3936 8.35896 21.5889 8.35896 21.8299C8.35896 22.3936 8.81758 22.8523 9.38131 22.8523C9.62229 22.8523 9.81767 23.0476 9.81767 23.2886V23.8288C9.81767 24.0698 9.62229 24.2652 9.38131 24.2652C8.81758 24.2652 8.35896 24.7238 8.35896 25.2876C8.35896 25.5285 8.16363 25.7239 7.9226 25.7239ZM6.69969 23.5587C7.12176 23.7489 7.46223 24.0894 7.65249 24.5115C7.84274 24.0895 8.18316 23.749 8.60529 23.5587C8.18321 23.3685 7.84274 23.0281 7.65249 22.6059C7.46223 23.0281 7.12176 23.3685 6.69969 23.5587Z" fill="#F9A351"/>
<path d="M20.0244 28.7494H19.4842C19.2432 28.7494 19.0478 28.554 19.0478 28.3131C19.0478 27.7493 18.5892 27.2907 18.0255 27.2907C17.7845 27.2907 17.5891 27.0953 17.5891 26.8544V26.3141C17.5891 26.0731 17.7845 25.8777 18.0255 25.8777C18.5892 25.8777 19.0478 25.4192 19.0478 24.8554C19.0478 24.6144 19.2432 24.4191 19.4842 24.4191H20.0244C20.2654 24.4191 20.4608 24.6144 20.4608 24.8554C20.4608 25.4192 20.9194 25.8777 21.4831 25.8777C21.7241 25.8777 21.9195 26.0731 21.9195 26.3141V26.8544C21.9195 27.0953 21.7241 27.2907 21.4831 27.2907C20.9194 27.2907 20.4608 27.7493 20.4608 28.3131C20.4608 28.554 20.2654 28.7494 20.0244 28.7494ZM18.8014 26.5842C19.2235 26.7744 19.564 27.1149 19.7543 27.537C19.9445 27.115 20.285 26.7745 20.7071 26.5842C20.2851 26.394 19.9445 26.0536 19.7543 25.6314C19.5641 26.0535 19.2236 26.394 18.8014 26.5842Z" fill="#F9A351"/>
</svg>
