<svg width="30" height="30" viewBox="0 0 30 30" fill="none" xmlns="http://www.w3.org/2000/svg">
<g clip-path="url(#clip0_1035_756)">
<path d="M27.6563 12.1875C28.112 12.188 28.5523 12.0222 28.8946 11.7212C29.2368 11.4202 29.4573 11.0046 29.5149 10.5524C29.5724 10.1003 29.463 9.64274 29.2071 9.26558C28.9512 8.88843 28.5664 8.61764 28.125 8.50403V7.43341C28.3986 7.36436 28.6531 7.23428 28.8692 7.05291C29.0854 6.87155 29.2578 6.6436 29.3733 6.38616C29.4889 6.12872 29.5447 5.84846 29.5366 5.56639C29.5284 5.28432 29.4565 5.00775 29.3263 4.75741C29.196 4.50707 29.0108 4.28946 28.7845 4.12088C28.5582 3.9523 28.2967 3.83713 28.0196 3.784C27.7424 3.73087 27.4568 3.74115 27.1842 3.81409C26.9116 3.88702 26.6591 4.0207 26.4455 4.20513L24.72 2.99716C24.8286 2.71321 24.8666 2.40712 24.8306 2.10525C24.7946 1.80338 24.6857 1.51479 24.5134 1.26435C24.341 1.01391 24.1104 0.809134 23.8413 0.667663C23.5722 0.526191 23.2728 0.452271 22.9688 0.452271C22.6648 0.452271 22.3653 0.526191 22.0962 0.667663C21.8271 0.809134 21.5965 1.01391 21.4241 1.26435C21.2518 1.51479 21.1429 1.80338 21.107 2.10525C21.071 2.40712 21.1089 2.71321 21.2175 2.99716L19.492 4.20513C19.1569 3.91171 18.7267 3.74996 18.2813 3.74996C17.8358 3.74996 17.4056 3.91171 17.0705 4.20513L15.345 2.99716C15.4536 2.71321 15.4916 2.40712 15.4556 2.10525C15.4196 1.80338 15.3107 1.51479 15.1384 1.26435C14.966 1.01391 14.7354 0.809134 14.4663 0.667663C14.1972 0.526191 13.8978 0.452271 13.5938 0.452271C13.2898 0.452271 12.9903 0.526191 12.7212 0.667663C12.4521 0.809134 12.2215 1.01391 12.0491 1.26435C11.8768 1.51479 11.768 1.80338 11.732 2.10525C11.696 2.40712 11.7339 2.71321 11.8425 2.99716L10.117 4.20513C9.78099 3.91329 9.35134 3.75178 8.90626 3.74997C8.5011 3.74558 8.10519 3.87113 7.7766 4.10821C7.44801 4.34529 7.20403 4.68142 7.08044 5.0673C6.95685 5.45318 6.96016 5.86851 7.08989 6.25237C7.21961 6.63623 7.46891 6.96843 7.80124 7.20024C8.13357 7.43205 8.53143 7.55127 8.93647 7.54043C9.34151 7.52959 9.73242 7.38924 10.0519 7.13998C10.3713 6.89072 10.6025 6.54566 10.7115 6.15541C10.8205 5.76516 10.8016 5.35025 10.6575 4.97153L12.383 3.76356C12.7181 4.05698 13.1483 4.21873 13.5938 4.21873C14.0392 4.21873 14.4694 4.05698 14.8045 3.76356L16.53 4.97153C16.4356 5.21653 16.3944 5.47881 16.4092 5.74095C16.4239 6.00309 16.4943 6.25908 16.6156 6.49194C16.7369 6.72479 16.9064 6.92916 17.1127 7.09149C17.3191 7.25381 17.5576 7.37036 17.8125 7.43341V8.50403C17.4112 8.60765 17.0555 8.84132 16.8011 9.16852C16.5467 9.49571 16.4078 9.89799 16.4063 10.3125C16.4089 10.4914 16.4375 10.6691 16.4911 10.8398L14.9063 11.79C14.7019 11.5877 14.4536 11.4352 14.1808 11.3444C13.908 11.2535 13.6179 11.2268 13.333 11.2662C13.0482 11.3056 12.7762 11.4101 12.5383 11.5716C12.3004 11.7331 12.1029 11.9473 11.9611 12.1975C11.8194 12.4477 11.7371 12.7272 11.7209 13.0143C11.7046 13.3014 11.7547 13.5883 11.8672 13.853C11.9798 14.1176 12.1518 14.3527 12.3699 14.5401C12.5881 14.7274 12.8464 14.862 13.125 14.9334V16.004C12.8514 16.0731 12.597 16.2032 12.3808 16.3845C12.1646 16.5659 11.9922 16.7938 11.8767 17.0513C11.7611 17.3087 11.7053 17.589 11.7135 17.871C11.7216 18.1531 11.7935 18.4297 11.9237 18.68C12.054 18.9304 12.2392 19.148 12.4655 19.3166C12.6918 19.4851 12.9533 19.6003 13.2305 19.6534C13.5076 19.7066 13.7932 19.6963 14.0658 19.6234C14.3384 19.5504 14.591 19.4167 14.8045 19.2323L16.5305 20.4403C16.4499 20.6488 16.4078 20.8702 16.4063 21.0937C16.4063 21.591 16.6038 22.0679 16.9554 22.4195C17.3071 22.7712 17.784 22.9687 18.2813 22.9687C18.7785 22.9687 19.2555 22.7712 19.6071 22.4195C19.9587 22.0679 20.1563 21.591 20.1563 21.0937C20.1547 20.8702 20.1126 20.6488 20.032 20.4403L21.758 19.2323C22.0931 19.5257 22.5233 19.6875 22.9688 19.6875C23.4142 19.6875 23.8444 19.5257 24.1795 19.2323L25.9055 20.4403C25.8249 20.6488 25.7828 20.8702 25.7813 21.0937C25.7828 21.5082 25.9217 21.9105 26.1761 22.2377C26.4305 22.5649 26.7862 22.7985 27.1875 22.9022V24.9103C26.7456 25.0244 26.3605 25.2957 26.1044 25.6734C25.8483 26.0511 25.7387 26.5093 25.7962 26.962C25.8537 27.4147 26.0744 27.8309 26.4168 28.1326C26.7592 28.4343 27.1999 28.6007 27.6563 28.6007C28.1126 28.6007 28.5533 28.4343 28.8957 28.1326C29.2382 27.8309 29.4588 27.4147 29.5163 26.962C29.5738 26.5093 29.4642 26.0511 29.2081 25.6734C28.952 25.2957 28.5669 25.0244 28.125 24.9103V22.9022C28.3986 22.8331 28.6531 22.703 28.8692 22.5217C29.0854 22.3403 29.2578 22.1124 29.3733 21.8549C29.4889 21.5975 29.5447 21.3172 29.5366 21.0351C29.5284 20.7531 29.4565 20.4765 29.3263 20.2262C29.196 19.9758 29.0108 19.7582 28.7845 19.5896C28.5582 19.4211 28.2967 19.3059 28.0196 19.2528C27.7424 19.1996 27.4568 19.2099 27.1842 19.2828C26.9116 19.3558 26.6591 19.4895 26.4455 19.6739L24.7195 18.4659C24.8001 18.2574 24.8422 18.036 24.8438 17.8125C24.8422 17.398 24.7034 16.9957 24.4489 16.6685C24.1945 16.3413 23.8388 16.1076 23.4375 16.004V15.4218C23.9665 15.3131 24.4419 15.0252 24.7834 14.6068C25.125 14.1884 25.3118 13.6651 25.3125 13.125C25.3103 12.8605 25.2627 12.5985 25.1719 12.3501L26.3438 11.647C26.693 11.9929 27.1647 12.1871 27.6563 12.1875ZM28.5938 10.3125C28.5938 10.4979 28.5388 10.6791 28.4358 10.8333C28.3328 10.9875 28.1863 11.1076 28.015 11.1786C27.8437 11.2496 27.6552 11.2681 27.4734 11.232C27.2915 11.1958 27.1245 11.1065 26.9933 10.9754C26.8622 10.8443 26.7729 10.6772 26.7368 10.4954C26.7006 10.3135 26.7192 10.125 26.7901 9.9537C26.8611 9.7824 26.9812 9.63598 27.1354 9.53297C27.2896 9.42995 27.4708 9.37497 27.6563 9.37497C27.9049 9.37497 28.1434 9.47374 28.3192 9.64956C28.495 9.82537 28.5938 10.0638 28.5938 10.3125ZM27.6563 4.68747C27.8417 4.68747 28.0229 4.74245 28.1771 4.84547C28.3313 4.94848 28.4514 5.0949 28.5224 5.2662C28.5934 5.43751 28.6119 5.62601 28.5757 5.80787C28.5396 5.98972 28.4503 6.15677 28.3192 6.28788C28.1881 6.41899 28.021 6.50828 27.8392 6.54446C27.6573 6.58063 27.4688 6.56206 27.2975 6.49111C27.1262 6.42015 26.9798 6.29999 26.8768 6.14582C26.7737 5.99165 26.7188 5.81039 26.7188 5.62497C26.7188 5.37633 26.8175 5.13787 26.9933 4.96206C27.1692 4.78624 27.4076 4.68747 27.6563 4.68747ZM22.9688 1.40622C23.1542 1.40622 23.3354 1.4612 23.4896 1.56422C23.6438 1.66723 23.7639 1.81365 23.8349 1.98495C23.9059 2.15626 23.9244 2.34476 23.8882 2.52662C23.8521 2.70847 23.7628 2.87552 23.6317 3.00663C23.5006 3.13774 23.3335 3.22703 23.1517 3.26321C22.9698 3.29938 22.7813 3.28081 22.61 3.20986C22.4387 3.1389 22.2923 3.01874 22.1893 2.86457C22.0862 2.7104 22.0313 2.52914 22.0313 2.34372C22.0313 2.09508 22.13 1.85662 22.3058 1.68081C22.4817 1.50499 22.7201 1.40622 22.9688 1.40622ZM8.90626 6.56247C8.72084 6.56247 8.53958 6.50749 8.38541 6.40447C8.23124 6.30146 8.11108 6.15504 8.04012 5.98374C7.96917 5.81243 7.9506 5.62393 7.98678 5.44207C8.02295 5.26022 8.11224 5.09317 8.24335 4.96206C8.37446 4.83095 8.54151 4.74166 8.72336 4.70548C8.90522 4.66931 9.09372 4.68788 9.26503 4.75883C9.43633 4.82979 9.58275 4.94995 9.68576 5.10412C9.78878 5.25829 9.84376 5.43955 9.84376 5.62497C9.84376 5.87361 9.74499 6.11207 9.56917 6.28788C9.39336 6.4637 9.1549 6.56247 8.90626 6.56247ZM13.5938 3.28122C13.4083 3.28122 13.2271 3.22624 13.0729 3.12322C12.9187 3.02021 12.7986 2.87379 12.7276 2.70249C12.6567 2.53118 12.6381 2.34268 12.6743 2.16082C12.7104 1.97897 12.7997 1.81192 12.9308 1.68081C13.062 1.5497 13.229 1.46041 13.4109 1.42423C13.5927 1.38806 13.7812 1.40663 13.9525 1.47758C14.1238 1.54854 14.2702 1.6687 14.3733 1.82287C14.4763 1.97704 14.5313 2.1583 14.5313 2.34372C14.5313 2.59236 14.4325 2.83082 14.2567 3.00663C14.0809 3.18245 13.8424 3.28122 13.5938 3.28122ZM17.3438 5.62497C17.3438 5.43955 17.3987 5.25829 17.5018 5.10412C17.6048 4.94995 17.7512 4.82979 17.9225 4.75883C18.0938 4.68788 18.2823 4.66931 18.4642 4.70548C18.646 4.74166 18.8131 4.83095 18.9442 4.96206C19.0753 5.09317 19.1646 5.26022 19.2007 5.44207C19.2369 5.62393 19.2184 5.81243 19.1474 5.98374C19.0764 6.15504 18.9563 6.30146 18.8021 6.40447C18.6479 6.50749 18.4667 6.56247 18.2813 6.56247C18.0326 6.56247 17.7942 6.4637 17.6183 6.28788C17.4425 6.11207 17.3438 5.87361 17.3438 5.62497ZM18.2813 9.37497C18.4667 9.37497 18.6479 9.42995 18.8021 9.53297C18.9563 9.63598 19.0764 9.7824 19.1474 9.9537C19.2184 10.125 19.2369 10.3135 19.2007 10.4954C19.1646 10.6772 19.0753 10.8443 18.9442 10.9754C18.8131 11.1065 18.646 11.1958 18.4642 11.232C18.2823 11.2681 18.0938 11.2496 17.9225 11.1786C17.7512 11.1076 17.6048 10.9875 17.5018 10.8333C17.3987 10.6791 17.3438 10.4979 17.3438 10.3125C17.3438 10.0638 17.4425 9.82537 17.6183 9.64956C17.7942 9.47374 18.0326 9.37497 18.2813 9.37497ZM19.5938 11.6475L20.7656 12.3506C20.6748 12.5988 20.6272 12.8607 20.625 13.125C20.6257 13.6651 20.8126 14.1884 21.1541 14.6068C21.4956 15.0252 21.971 15.3131 22.5 15.4218V16.0045C22.0988 16.1081 21.7432 16.3417 21.4887 16.6688C21.2343 16.9959 21.0954 17.3981 21.0938 17.8125C21.0953 18.036 21.1374 18.2574 21.218 18.4659L19.492 19.6739C19.1569 19.3805 18.7267 19.2187 18.2813 19.2187C17.8358 19.2187 17.4056 19.3805 17.0705 19.6739L15.3445 18.4659C15.4251 18.2574 15.4672 18.036 15.4688 17.8125C15.4672 17.398 15.3284 16.9957 15.0739 16.6685C14.8195 16.3413 14.4638 16.1076 14.0625 16.004V14.9334C14.4638 14.8298 14.8195 14.5961 15.0739 14.2689C15.3284 13.9417 15.4672 13.5394 15.4688 13.125C15.4661 12.946 15.4375 12.7684 15.3839 12.5976L16.9688 11.6475C17.3183 11.9928 17.7899 12.1865 18.2813 12.1865C18.7726 12.1865 19.2442 11.9928 19.5938 11.6475ZM12.6563 13.125C12.6563 12.9395 12.7112 12.7583 12.8143 12.6041C12.9173 12.45 13.0637 12.3298 13.235 12.2588C13.4063 12.1879 13.5948 12.1693 13.7767 12.2055C13.9585 12.2417 14.1256 12.3309 14.2567 12.4621C14.3878 12.5932 14.4771 12.7602 14.5132 12.9421C14.5494 13.1239 14.5309 13.3124 14.4599 13.4837C14.3889 13.655 14.2688 13.8015 14.1146 13.9045C13.9604 14.0075 13.7792 14.0625 13.5938 14.0625C13.3451 14.0625 13.1067 13.9637 12.9308 13.7879C12.755 13.6121 12.6563 13.3736 12.6563 13.125ZM13.5938 18.75C13.4083 18.75 13.2271 18.695 13.0729 18.592C12.9187 18.489 12.7986 18.3425 12.7276 18.1712C12.6567 17.9999 12.6381 17.8114 12.6743 17.6296C12.7104 17.4477 12.7997 17.2807 12.9308 17.1496C13.062 17.0184 13.229 16.9292 13.4109 16.893C13.5927 16.8568 13.7812 16.8754 13.9525 16.9463C14.1238 17.0173 14.2702 17.1375 14.3733 17.2916C14.4763 17.4458 14.5313 17.6271 14.5313 17.8125C14.5313 18.0611 14.4325 18.2996 14.2567 18.4754C14.0809 18.6512 13.8424 18.75 13.5938 18.75ZM18.2813 22.0312C18.0958 22.0312 17.9146 21.9762 17.7604 21.8732C17.6062 21.7702 17.4861 21.6238 17.4151 21.4525C17.3442 21.2812 17.3256 21.0927 17.3618 20.9108C17.3979 20.729 17.4872 20.5619 17.6183 20.4308C17.7495 20.2997 17.9165 20.2104 18.0984 20.1742C18.2802 20.1381 18.4687 20.1566 18.64 20.2276C18.8113 20.2985 18.9578 20.4187 19.0608 20.5729C19.1638 20.727 19.2188 20.9083 19.2188 21.0937C19.2188 21.3424 19.12 21.5808 18.9442 21.7566C18.7684 21.9324 18.5299 22.0312 18.2813 22.0312ZM28.5938 26.7187C28.5938 26.9041 28.5388 27.0854 28.4358 27.2396C28.3328 27.3937 28.1863 27.5139 28.015 27.5849C27.8437 27.6558 27.6552 27.6744 27.4734 27.6382C27.2915 27.602 27.1245 27.5127 26.9933 27.3816C26.8622 27.2505 26.7729 27.0835 26.7368 26.9016C26.7006 26.7198 26.7192 26.5313 26.7901 26.36C26.8611 26.1886 26.9812 26.0422 27.1354 25.9392C27.2896 25.8362 27.4708 25.7812 27.6563 25.7812C27.9049 25.7812 28.1434 25.88 28.3192 26.0558C28.495 26.2316 28.5938 26.4701 28.5938 26.7187ZM27.6563 20.1562C27.8417 20.1562 28.0229 20.2112 28.1771 20.3142C28.3313 20.4172 28.4514 20.5636 28.5224 20.735C28.5934 20.9063 28.6119 21.0948 28.5757 21.2766C28.5396 21.4585 28.4503 21.6255 28.3192 21.7566C28.1881 21.8877 28.021 21.977 27.8392 22.0132C27.6573 22.0494 27.4688 22.0308 27.2975 21.9599C27.1262 21.8889 26.9798 21.7687 26.8768 21.6146C26.7737 21.4604 26.7188 21.2791 26.7188 21.0937C26.7188 20.8451 26.8175 20.6066 26.9933 20.4308C27.1692 20.255 27.4076 20.1562 27.6563 20.1562ZM23.9063 17.8125C23.9063 17.9979 23.8513 18.1791 23.7483 18.3333C23.6453 18.4875 23.4988 18.6076 23.3275 18.6786C23.1562 18.7496 22.9677 18.7681 22.7859 18.732C22.604 18.6958 22.437 18.6065 22.3058 18.4754C22.1747 18.3443 22.0854 18.1772 22.0493 17.9954C22.0131 17.8135 22.0317 17.625 22.1026 17.4537C22.1736 17.2824 22.2937 17.136 22.4479 17.033C22.6021 16.93 22.7833 16.875 22.9688 16.875C23.2174 16.875 23.4559 16.9737 23.6317 17.1496C23.8075 17.3254 23.9063 17.5638 23.9063 17.8125ZM22.9688 14.5312C22.6906 14.5312 22.4187 14.4487 22.1875 14.2942C21.9562 14.1397 21.776 13.9201 21.6696 13.6631C21.5631 13.4062 21.5353 13.1234 21.5895 12.8506C21.6438 12.5778 21.7777 12.3273 21.9744 12.1306C22.1711 11.9339 22.4216 11.8 22.6944 11.7457C22.9672 11.6915 23.2499 11.7193 23.5069 11.8258C23.7639 11.9322 23.9835 12.1124 24.138 12.3437C24.2925 12.575 24.375 12.8468 24.375 13.125C24.375 13.4979 24.2269 13.8556 23.9631 14.1193C23.6994 14.3831 23.3417 14.5312 22.9688 14.5312ZM22.9688 10.7812C22.6446 10.782 22.3241 10.8505 22.0279 10.9822C21.7317 11.1139 21.4662 11.306 21.2484 11.5462L20.0714 10.8398C20.125 10.6691 20.1536 10.4914 20.1563 10.3125C20.1547 9.89799 20.0159 9.49571 19.7614 9.16852C19.507 8.84132 19.1513 8.60765 18.75 8.50403V7.43341C19.0049 7.37036 19.2434 7.25381 19.4498 7.09149C19.6561 6.92916 19.8256 6.72479 19.9469 6.49194C20.0682 6.25908 20.1386 6.00309 20.1533 5.74095C20.1681 5.47881 20.1269 5.21653 20.0325 4.97153L21.758 3.76356C22.0931 4.05698 22.5233 4.21873 22.9688 4.21873C23.4142 4.21873 23.8444 4.05698 24.1795 3.76356L25.905 4.97153C25.8106 5.21653 25.7694 5.47881 25.7842 5.74095C25.7989 6.00309 25.8693 6.25908 25.9906 6.49194C26.1119 6.72479 26.2814 6.92916 26.4877 7.09149C26.6941 7.25381 26.9326 7.37036 27.1875 7.43341V8.50403C26.9427 8.56286 26.7127 8.67141 26.5116 8.82296C26.3106 8.9745 26.1429 9.16578 26.019 9.38491C25.895 9.60404 25.8175 9.84633 25.7912 10.0967C25.7649 10.3471 25.7904 10.6002 25.8661 10.8403L24.6891 11.5462C24.4713 11.306 24.2059 11.1139 23.9096 10.9822C23.6134 10.8505 23.293 10.782 22.9688 10.7812Z" fill="black"/>
<path d="M3.75001 23.9485V20.3503L5.2936 21.8939L5.95641 21.2311L3.61266 18.8874C3.52476 18.7995 3.40555 18.7501 3.28126 18.7501C3.15696 18.7501 3.03775 18.7995 2.94985 18.8874L0.606099 21.2311L1.26891 21.8939L2.81251 20.3503V23.9485C2.11716 24.066 1.49135 24.4405 1.05908 24.9976C0.626809 25.5548 0.419633 26.2541 0.478607 26.9568C0.537581 27.6596 0.8584 28.3145 1.37749 28.7918C1.89658 29.2692 2.57605 29.5341 3.28126 29.5341C3.98646 29.5341 4.66593 29.2692 5.18502 28.7918C5.70411 28.3145 6.02493 27.6596 6.0839 26.9568C6.14288 26.2541 5.9357 25.5548 5.50343 24.9976C5.07116 24.4405 4.44535 24.066 3.75001 23.9485ZM3.28126 28.5938C2.91042 28.5938 2.5479 28.4838 2.23956 28.2778C1.93122 28.0717 1.6909 27.7789 1.54898 27.4363C1.40707 27.0937 1.36994 26.7167 1.44228 26.353C1.51463 25.9893 1.69321 25.6552 1.95543 25.3929C2.21765 25.1307 2.55175 24.9521 2.91546 24.8798C3.27918 24.8075 3.65618 24.8446 3.99879 24.9865C4.3414 25.1284 4.63423 25.3687 4.84026 25.6771C5.04629 25.9854 5.15626 26.3479 5.15626 26.7188C5.15626 27.2161 4.95871 27.693 4.60708 28.0446C4.25545 28.3962 3.77854 28.5938 3.28126 28.5938Z" fill="black"/>
<path d="M9.37495 18.75C8.67259 18.7541 7.99716 19.0208 7.48153 19.4977C6.96589 19.9746 6.64737 20.6272 6.5886 21.3271C6.52984 22.027 6.73508 22.7236 7.16397 23.2798C7.59286 23.8361 8.21435 24.2117 8.9062 24.3328V27.1875H7.49995V28.125H8.9062V29.5312H9.8437V28.125H11.25V27.1875H9.8437V24.3328C10.5356 24.2117 11.157 23.8361 11.5859 23.2798C12.0148 22.7236 12.2201 22.027 12.1613 21.3271C12.1025 20.6272 11.784 19.9746 11.2684 19.4977C10.7527 19.0208 10.0773 18.7541 9.37495 18.75ZM9.37495 23.4375C9.00411 23.4375 8.6416 23.3275 8.33326 23.1215C8.02491 22.9155 7.78459 22.6226 7.64268 22.28C7.50076 21.9374 7.46363 21.5604 7.53598 21.1967C7.60833 20.833 7.7869 20.4989 8.04913 20.2367C8.31135 19.9745 8.64544 19.7959 9.00916 19.7235C9.37287 19.6512 9.74987 19.6883 10.0925 19.8302C10.4351 19.9721 10.7279 20.2125 10.934 20.5208C11.14 20.8291 11.25 21.1917 11.25 21.5625C11.25 22.0598 11.0524 22.5367 10.7008 22.8883C10.3491 23.24 9.87223 23.4375 9.37495 23.4375Z" fill="#F9A351"/>
</g>
<defs>
<clipPath id="clip0_1035_756">
<rect width="30" height="30" fill="white"/>
</clipPath>
</defs>
</svg>
