<svg width="30" height="30" viewBox="0 0 30 30" fill="none" xmlns="http://www.w3.org/2000/svg">
<g clip-path="url(#clip0_1035_902)">
<path d="M27.75 9.62128L20.567 8.57751L17.3787 2.11728L17.3465 2.05233C17.3181 1.99576 17.2872 1.93945 17.2511 1.87894C17.2406 1.86134 17.2298 1.84433 17.2158 1.82296C17.1902 1.7824 17.1642 1.74242 17.1363 1.70304C17.1233 1.68468 17.11 1.66683 17.0965 1.64907L17.0903 1.64085C17.064 1.60591 17.0371 1.57163 17.0078 1.53635C16.9914 1.51683 16.9748 1.4978 16.9567 1.47719C16.9283 1.44526 16.8992 1.41417 16.8684 1.38282C16.8512 1.36539 16.834 1.34796 16.817 1.33162C16.7828 1.2986 16.7477 1.26701 16.7077 1.23256C16.6949 1.22125 16.6819 1.21002 16.6665 1.19728C16.625 1.16309 16.5805 1.12898 16.5363 1.09722L16.5089 1.07728C16.3996 1.00085 16.2823 0.931795 16.1588 0.871456C16.1487 0.866596 16.1387 0.861903 16.1277 0.856958C16.0772 0.833158 16.0266 0.811202 15.9769 0.791508L15.9449 0.779273C15.8931 0.759579 15.8409 0.741477 15.7903 0.725806L15.7584 0.716085C15.7015 0.699157 15.6436 0.684072 15.5941 0.672926L15.5714 0.667647C15.2473 0.596498 14.9072 0.586776 14.5787 0.639405C13.7315 0.774831 13.0268 1.29584 12.6454 2.06867L9.43313 8.57751L2.25018 9.62128C1.25376 9.76609 0.441623 10.4508 0.130462 11.4083C-0.180616 12.3658 0.0738944 13.3971 0.794854 14.0999L5.9925 19.1664L4.76546 26.3204C4.63422 27.0861 4.84331 27.8624 5.33917 28.4505C5.84459 29.0501 6.57871 29.3939 7.35305 29.3939C7.77835 29.3939 8.18949 29.2911 8.57524 29.0884L14.9999 25.7107L21.4246 29.0883C21.8103 29.291 22.2214 29.3938 22.6467 29.3938H22.6468C23.3193 29.3938 23.9625 29.1353 24.4576 28.6658C25.1021 28.0547 25.3852 27.1997 25.2344 26.3203L24.0074 19.1663L29.2049 14.0999C29.4643 13.8471 29.6651 13.5518 29.802 13.2221C29.8419 13.1257 29.8759 13.0275 29.9032 12.9302C29.9458 12.7778 29.9747 12.6221 29.9888 12.4674C29.9951 12.3971 29.9987 12.3321 29.9996 12.2695C30.0203 10.9274 29.074 9.81361 27.75 9.62128ZM28.3197 12.3154C28.3148 12.3692 28.3046 12.4242 28.2894 12.4786C28.2803 12.5115 28.2683 12.5456 28.2539 12.58C28.2047 12.6987 28.1312 12.8062 28.0353 12.8997L22.2067 18.5812L23.5827 26.6036C23.6575 27.0394 23.4406 27.3206 23.3047 27.4495C23.1248 27.6201 22.8852 27.7178 22.6471 27.7178C22.4963 27.7178 22.3475 27.6797 22.2048 27.6047L15.0002 23.8171L7.79553 27.6048C7.65282 27.6798 7.50398 27.7179 7.3533 27.7179C7.07818 27.7179 6.80431 27.5879 6.62078 27.3702C6.49398 27.2198 6.35579 26.9647 6.41772 26.6037L7.79369 18.5812L1.965 12.8997C1.70035 12.6416 1.61051 12.2778 1.72474 11.9262C1.83896 11.5747 2.12557 11.333 2.49137 11.2799L10.5463 10.1094L14.1486 2.81033C14.3373 2.42794 14.6649 2.32293 14.8433 2.29435C14.8952 2.28606 14.9481 2.28187 15.0007 2.28187C15.0699 2.28187 15.1391 2.28907 15.2063 2.3034L15.2186 2.30625C15.2394 2.31095 15.2598 2.31639 15.2803 2.32243L15.2912 2.32578C15.3103 2.33165 15.329 2.33818 15.3482 2.34547L15.3605 2.35008C15.379 2.35737 15.3972 2.3655 15.4167 2.37464L15.4306 2.38101C15.4683 2.39978 15.5042 2.42064 15.5378 2.44344L15.5529 2.45433C15.5695 2.46632 15.5861 2.4788 15.6003 2.49062L15.6188 2.50679C15.6306 2.51693 15.6423 2.52716 15.6541 2.53847L15.6716 2.55615C15.683 2.5678 15.6942 2.5797 15.7037 2.59035L15.7222 2.61172C15.7324 2.62387 15.7421 2.63652 15.7516 2.64909L15.769 2.67214C15.7791 2.68639 15.7884 2.70139 15.7984 2.71722L15.8156 2.74387C15.8209 2.75267 15.8257 2.76131 15.8303 2.7696L19.454 10.1093L27.509 11.2798C28.0524 11.3588 28.3303 11.8246 28.3239 12.2445C28.3236 12.2682 28.3219 12.2917 28.3197 12.3154Z" fill="black"/>
<path d="M21.4274 12.9367L17.7845 12.4073L16.1553 9.10629C15.9368 8.66331 15.494 8.38818 15.0002 8.38818C14.5063 8.38818 14.0636 8.66331 13.845 9.10629L12.2159 12.4073L8.57289 12.9367C8.08407 13.0078 7.68558 13.3437 7.53298 13.8135C7.38037 14.2833 7.50532 14.7893 7.85897 15.134L10.495 17.7035L9.87277 21.3316C9.80824 21.707 9.91148 22.0885 10.1558 22.3782C10.4025 22.6709 10.7621 22.8386 11.1424 22.8386C11.3492 22.8386 11.5565 22.7871 11.7418 22.6896L15.0002 20.9767L18.2586 22.6897C18.444 22.7872 18.6513 22.8386 18.8581 22.8386C19.2384 22.8386 19.598 22.6708 19.8446 22.3781C20.0889 22.0884 20.1921 21.707 20.1277 21.3316L19.5054 17.7034L22.1414 15.1339C22.4951 14.7892 22.62 14.2832 22.4674 13.8134C22.3148 13.3437 21.9163 13.0078 21.4274 12.9367ZM17.7044 17.1184L18.3429 20.8405L15.0001 19.0831L11.6574 20.8404L12.2958 17.1183L9.59144 14.4823L13.3287 13.9392L15 10.5527L16.6713 13.9392L20.4086 14.4823L17.7044 17.1184Z" fill="#F9A351"/>
</g>
<defs>
<clipPath id="clip0_1035_902">
<rect width="30" height="30" fill="white"/>
</clipPath>
</defs>
</svg>
