<svg width="30" height="30" viewBox="0 0 30 30" fill="none" xmlns="http://www.w3.org/2000/svg">
<g clip-path="url(#clip0_1035_1380)">
<path fill-rule="evenodd" clip-rule="evenodd" d="M25.6065 25.6065C28.4397 22.7733 30 19.0065 30 14.9998C30 10.9932 28.4397 7.22643 25.6065 4.3933C22.7733 1.56023 19.0065 0 14.9998 0C12.6485 0 10.3971 0.528809 8.30807 1.57184C6.75873 2.34539 5.33947 3.39937 4.13871 4.65773V3.13857C4.13871 2.81496 3.87633 2.55264 3.55277 2.55264C3.22922 2.55264 2.96684 2.81496 2.96684 3.13857V6.24105C2.96684 6.56467 3.22922 6.82699 3.55277 6.82699H6.65484C6.9784 6.82699 7.24078 6.56467 7.24078 6.24105C7.24078 5.91744 6.9784 5.65512 6.65484 5.65512H4.80732C7.42482 2.79328 11.0808 1.17188 14.9998 1.17188C22.6248 1.17188 28.8281 7.37508 28.8281 14.9998C28.8281 22.6248 22.6248 28.8281 14.9998 28.8281C7.37508 28.8281 1.17188 22.6248 1.17188 14.9998C1.17188 14.3955 1.21113 13.7878 1.28859 13.1937C1.33043 12.8728 1.10426 12.5788 0.78334 12.537C0.463008 12.4952 0.168398 12.7213 0.126563 13.0422C0.0425977 13.6863 0 14.345 0 14.9998C0 19.0065 1.56023 22.7733 4.3933 25.6065C7.22643 28.4397 10.9932 30 14.9998 30C19.0065 30 22.7733 28.4397 25.6065 25.6065ZM5.70545 14.9998C5.70545 20.1248 9.87492 24.2943 14.9999 24.2943C20.1248 24.2943 24.2943 20.1248 24.2943 14.9999C24.2943 9.87492 20.1248 5.70545 14.9999 5.70545C9.87492 5.70545 5.70545 9.87486 5.70545 14.9998ZM23.1224 14.9998C23.1224 19.4786 19.4787 23.1224 14.9999 23.1224C10.5211 23.1224 6.87732 19.4787 6.87732 14.9998C6.87732 10.521 10.5211 6.87727 14.9999 6.87727C19.4786 6.87727 23.1224 10.521 23.1224 14.9998Z" fill="black"/>
<path fill-rule="evenodd" clip-rule="evenodd" d="M16.7549 19.9803H13.2448C12.9213 19.9803 12.6589 19.7179 12.6589 19.3944V17.3408H10.6053C10.2817 17.3408 10.0194 17.0784 10.0194 16.7548V13.2448C10.0194 12.9212 10.2817 12.6588 10.6053 12.6588H12.6589V10.6053C12.6589 10.2817 12.9213 10.0194 13.2448 10.0194H16.7549C17.0784 10.0194 17.3408 10.2817 17.3408 10.6053V12.6588H19.3944C19.718 12.6588 19.9804 12.9212 19.9804 13.2448V16.7548C19.9804 17.0784 19.718 17.3408 19.3944 17.3408H17.3408V19.3944C17.3408 19.718 17.0785 19.9803 16.7549 19.9803ZM18.8085 16.1689H16.7549C16.4313 16.1689 16.1689 16.4313 16.1689 16.7548V18.8084H13.8308V16.7548C13.8308 16.4313 13.5684 16.1689 13.2448 16.1689H11.1912V13.8307H13.2448C13.5684 13.8307 13.8308 13.5684 13.8308 13.2448V11.1912H16.1689V13.2448C16.1689 13.5684 16.4313 13.8307 16.7549 13.8307H18.8085V16.1689Z" fill="#EF9F42"/>
</g>
<defs>
<clipPath id="clip0_1035_1380">
<rect width="30" height="30" fill="white"/>
</clipPath>
</defs>
</svg>
