<svg width="30" height="30" viewBox="0 0 30 30" fill="none" xmlns="http://www.w3.org/2000/svg">
<path d="M15.0478 10.4681C13.4072 9.2587 11.0344 9.44808 9.58877 10.8946C7.96877 12.5156 7.96033 15.2381 9.58877 16.8515L14.551 21.8137C14.6878 21.9506 14.8678 22.02 15.0478 22.02C15.2278 22.02 15.4078 21.9515 15.5447 21.8137L20.5069 16.8515C22.1485 15.209 22.1485 12.5371 20.5069 10.8946C19.0613 9.44808 16.6894 9.25776 15.0478 10.4681ZM19.5131 15.8568L15.0478 20.3221L10.5825 15.8568C9.49783 14.7825 9.50346 12.9684 10.5825 11.8893C11.6625 10.8093 13.47 10.8093 14.55 11.8893C14.6822 12.0215 14.8603 12.0956 15.0469 12.0956C15.2335 12.0956 15.4125 12.0215 15.5438 11.8893C16.6378 10.7962 18.4181 10.7953 19.5122 11.8893C20.6072 12.9825 20.6072 14.7628 19.5131 15.8568Z" fill="#EF9F42"/>
<path d="M28.125 1.17188H22.3753C21.9872 1.17188 21.6722 1.48688 21.6722 1.875C21.6722 2.26313 21.9872 2.57813 22.3753 2.57813H26.4272L22.3697 6.63563C20.4103 4.90781 17.8472 3.85031 15.0356 3.85031C8.9081 3.85031 3.92247 8.83594 3.92247 14.9634C3.92247 17.775 4.97997 20.3381 6.70778 22.2975L4.33403 24.6713L2.37185 22.7081C2.09716 22.4334 1.65185 22.4334 1.37716 22.7081C1.10247 22.9828 1.10247 23.4281 1.37716 23.7028L3.34028 25.6659L1.47372 27.5325C1.19903 27.8072 1.19903 28.2525 1.47372 28.5272C1.74841 28.8019 2.19372 28.8019 2.46841 28.5272L4.33497 26.6606L6.2981 28.6238C6.57278 28.8984 7.0181 28.8984 7.29278 28.6238C7.56747 28.3491 7.56747 27.9038 7.29278 27.6291L5.32966 25.6659L7.70341 23.2922C9.66278 25.02 12.2259 26.0775 15.0375 26.0775C21.165 26.0775 26.1506 21.0919 26.1506 14.9644C26.1506 12.1528 25.0931 9.58969 23.3653 7.63031L27.4228 3.57281V7.62469C27.4228 8.01281 27.7378 8.32782 28.1259 8.32782C28.514 8.32782 28.829 8.01281 28.829 7.62469V1.875C28.83 1.49344 28.5028 1.17094 28.125 1.17188ZM15.0365 24.6703C9.68435 24.6703 5.32966 20.3156 5.32966 14.9634C5.32966 9.61125 9.68435 5.25656 15.0365 5.25656C20.3887 5.25656 24.7434 9.61125 24.7434 14.9634C24.7434 20.3156 20.3887 24.6703 15.0365 24.6703Z" fill="black"/>
</svg>
