<svg width="30" height="30" viewBox="0 0 30 30" fill="none" xmlns="http://www.w3.org/2000/svg">
<path d="M27.3311 2.89301C26.9172 2.40622 26.3135 2.12713 25.6749 2.12713H23.5788V1.47147C23.5788 0.660119 22.9186 0 22.1073 0H7.8929C7.08149 0 6.42149 0.660118 6.42149 1.47141V2.12707H4.32518C3.68656 2.12707 3.08281 2.40622 2.66891 2.89296C2.25922 3.37466 2.08215 4.00735 2.18322 4.62874C2.734 8.01546 4.86536 11.0074 7.89026 12.6486C8.16665 13.3131 8.47966 13.9425 8.82824 14.5289C9.94164 16.4025 11.3258 17.6973 12.8494 18.3235C13.0038 19.8846 11.9649 21.3636 10.4005 21.7161C10.3971 21.7168 10.3948 21.718 10.3915 21.7188C10.0862 21.7917 9.8589 22.0657 9.8589 22.3933V25.5787H8.57066C7.4221 25.5787 6.4877 26.5131 6.4877 27.6616V29.3057C6.4877 29.6892 6.79854 30 7.18204 30H22.8844C23.2679 30 23.5788 29.6892 23.5788 29.3057V27.6616C23.5788 26.5131 22.6444 25.5787 21.4958 25.5787H20.2075V22.3934C20.2075 22.0651 19.9794 21.7907 19.6732 21.7184C19.6703 21.7177 19.6676 21.7168 19.6647 21.7161C18.0884 21.3613 17.0477 19.8674 17.2183 18.2945C18.7152 17.6582 20.0752 16.3749 21.1721 14.5291C21.5207 13.9426 21.8337 13.3131 22.1101 12.6485C25.1348 11.0073 27.2661 8.01535 27.8169 4.62874C27.9179 4.00735 27.7409 3.37471 27.3311 2.89301ZM3.55385 4.40579C3.51776 4.1839 3.5791 3.9661 3.72664 3.79255C3.87635 3.61653 4.09444 3.51563 4.32512 3.51563H6.42143V4.7931C6.42143 6.79619 6.67708 8.73646 7.16159 10.5109C5.25752 9.00623 3.94655 6.8205 3.55385 4.40579ZM21.4958 26.9674C21.8787 26.9674 22.1902 27.2789 22.1902 27.6618V28.6114H7.87632V27.6618C7.87632 27.2789 8.1878 26.9674 8.57066 26.9674H21.4958ZM18.8188 23.0877V25.5787H11.2477V23.0877H18.8188ZM13.0686 21.6991C13.2402 21.5102 13.3972 21.3054 13.5375 21.0862C14.0002 20.3632 14.2431 19.5419 14.254 18.703C14.5006 18.7366 14.7495 18.7545 15.0005 18.7545C15.2736 18.7545 15.5442 18.7336 15.8122 18.6938C15.828 19.8211 16.2667 20.8882 17.0045 21.6991H13.0686V21.6991ZM22.19 4.79315C22.19 8.21381 21.4045 11.4195 19.9783 13.8195C18.6194 16.1064 16.8515 17.3659 15.0004 17.3659C13.149 17.3659 11.381 16.1065 10.0219 13.8196C8.59562 11.4195 7.81011 8.21386 7.81011 4.79327V1.47141C7.81011 1.42571 7.84726 1.38862 7.89284 1.38862H22.1072C22.1529 1.38862 22.19 1.42576 22.19 1.47141V4.79315ZM26.4462 4.40579C26.0535 6.82033 24.7427 9.00599 22.8387 10.5107C23.3231 8.73635 23.5788 6.79619 23.5788 4.79315V3.51569H25.6749C25.9056 3.51569 26.1237 3.61665 26.2733 3.7926C26.4209 3.9661 26.4823 4.1839 26.4462 4.40579Z" fill="black"/>
<path d="M19.2153 7.12838C19.1336 6.87713 18.9163 6.69397 18.6548 6.65588L16.5596 6.35143L15.6226 4.45287C15.5056 4.21592 15.2643 4.06586 15 4.06586C14.7357 4.06586 14.4943 4.21592 14.3774 4.45287L13.4404 6.35143L11.3452 6.65588C11.0837 6.69385 10.8664 6.87707 10.7847 7.12844C10.7031 7.37987 10.7712 7.65573 10.9604 7.84024L12.4765 9.31804L12.1186 11.4047C12.0739 11.6652 12.1809 11.9285 12.3948 12.0838C12.6086 12.2392 12.8921 12.2596 13.126 12.1367L15 11.1516L16.874 12.1367C16.9756 12.1901 17.0865 12.2164 17.1969 12.2164C17.3408 12.2164 17.4842 12.1717 17.6051 12.0838C17.819 11.9284 17.926 11.6652 17.8813 11.4047L17.5234 9.31798L19.0395 7.84018C19.2288 7.65573 19.2969 7.37981 19.2153 7.12838ZM16.2928 8.5784C16.1292 8.7379 16.0545 8.9677 16.0931 9.193L16.2749 10.253L15.323 9.75251C15.222 9.69931 15.1109 9.67282 15 9.67282C14.889 9.67282 14.778 9.69942 14.6769 9.75251L13.725 10.253L13.9068 9.193C13.9454 8.96776 13.8707 8.73796 13.7071 8.5784L12.9371 7.82782L14.0013 7.67313C14.2274 7.64032 14.4229 7.49823 14.5241 7.29332L15 6.32899L15.4759 7.29332C15.5771 7.49823 15.7725 7.64026 15.9987 7.67313L17.0629 7.82782L16.2928 8.5784Z" fill="#F9A351"/>
</svg>
