<svg width="30" height="30" viewBox="0 0 30 30" fill="none" xmlns="http://www.w3.org/2000/svg">
<path d="M13.2599 6.77997C13.3499 6.89997 13.5 6.95997 13.62 6.95997C13.71 6.95997 13.7999 6.92997 13.8899 6.86997C14.0999 6.71997 14.13 6.44997 14.0099 6.23997L12.7499 4.46997C12.5999 4.25997 12.33 4.22997 12.12 4.34997C11.91 4.49997 11.8499 4.79997 11.9999 4.97997L13.2599 6.77997Z" fill="#F9A351"/>
<path d="M23.6999 16.71L24.8999 8.49C25.1099 7.11 24.8699 5.97 24.1799 5.16C23.5499 4.44 22.6199 4.05 21.42 4.05H17.9999C17.1299 2.55 15.51 1.5 13.62 1.5C11.73 1.5 10.0799 2.55 9.23995 4.08H5.78995C4.61995 4.08 3.65995 4.47 3.02995 5.19C2.33995 5.97 2.09995 7.11 2.30995 8.52L4.67995 24.63C4.91995 26.25 6.08995 27.21 7.82995 27.21H17.9399C18.9599 28.02 20.2499 28.5 21.6599 28.5C25.0199 28.5 27.7199 25.77 27.7199 22.44C27.7499 19.8 26.0399 17.55 23.6999 16.71ZM13.62 2.4C15.87 2.4 17.7299 4.23 17.7299 6.51C17.7299 8.79 15.9 10.62 13.62 10.62C11.34 10.62 9.50995 8.79 9.50995 6.51C9.50995 4.23 11.34 2.4 13.62 2.4ZM5.57995 24.48L3.20995 8.37C3.02995 7.26 3.20995 6.36 3.71995 5.76C4.16995 5.25 4.88995 4.98 5.78995 4.98H8.81995C8.66995 5.46 8.57995 5.97 8.57995 6.51C8.57995 9.27 10.83 11.52 13.5899 11.52C16.3499 11.52 18.5999 9.27 18.5999 6.51C18.5999 5.97 18.51 5.46 18.3599 4.98H21.3899C22.29 4.98 23.0099 5.25 23.4599 5.76C23.9699 6.33 24.1499 7.23 23.9699 8.37L22.7699 16.47C22.4099 16.41 22.0199 16.35 21.6299 16.35C18.7799 16.35 16.41 18.3 15.75 20.94H8.24995C8.00995 20.94 7.79995 21.15 7.79995 21.39V24C7.79995 24.24 8.00995 24.45 8.24995 24.45H15.9299C16.1699 25.14 16.5299 25.77 16.9799 26.31H7.82995C6.56995 26.31 5.75995 25.68 5.57995 24.48ZM15.72 23.55H8.72995V21.87H15.6299C15.5999 22.05 15.5999 22.23 15.5999 22.44C15.5999 22.83 15.66 23.19 15.72 23.55ZM21.6899 27.6C18.8399 27.6 16.5 25.29 16.5 22.44C16.5 19.59 18.8099 17.28 21.6599 17.28C24.5099 17.28 26.8199 19.59 26.8199 22.44C26.8499 25.29 24.5399 27.6 21.6899 27.6Z" fill="black"/>
<path d="M23.3399 22.86L22.1399 24.06V19.71C22.1399 19.47 21.9299 19.26 21.6899 19.26C21.4499 19.26 21.2399 19.47 21.2399 19.71V24.06L20.0399 22.86C19.8599 22.68 19.5899 22.68 19.4099 22.86C19.2299 23.04 19.2299 23.31 19.4099 23.49L21.3899 25.47C21.4799 25.56 21.5999 25.59 21.7199 25.59C21.8399 25.59 21.9599 25.56 22.0499 25.47L24.0299 23.49C24.2099 23.31 24.2099 23.04 24.0299 22.86C23.7899 22.68 23.5199 22.68 23.3399 22.86Z" fill="#F9A351"/>
</svg>
