<svg width="34" height="34" viewBox="0 0 34 34" fill="none" xmlns="http://www.w3.org/2000/svg">
<path d="M27.9369 26.4905L21.1198 19.6734C22.1777 18.3058 22.7499 16.6337 22.7499 14.875C22.7499 12.7697 21.9283 10.7957 20.4426 9.30736C18.9568 7.819 16.9776 7 14.875 7C12.7723 7 10.7931 7.82162 9.30736 9.30736C7.819 10.7931 7 12.7697 7 14.875C7 16.9776 7.82162 18.9568 9.30736 20.4426C10.7931 21.9309 12.7697 22.7499 14.875 22.7499C16.6337 22.7499 18.3032 22.1777 19.6708 21.1224L26.4879 27.9369C26.5079 27.9569 26.5316 27.9728 26.5578 27.9836C26.5839 27.9944 26.6119 28 26.6402 28C26.6684 28 26.6964 27.9944 26.7226 27.9836C26.7487 27.9728 26.7724 27.9569 26.7924 27.9369L27.9369 26.795C27.9569 26.775 27.9728 26.7513 27.9836 26.7252C27.9944 26.6991 28 26.6711 28 26.6428C28 26.6145 27.9944 26.5865 27.9836 26.5604C27.9728 26.5343 27.9569 26.5105 27.9369 26.4905ZM19.0329 19.0329C17.92 20.1433 16.4447 20.7549 14.875 20.7549C13.3052 20.7549 11.83 20.1433 10.717 19.0329C9.60661 17.92 8.99499 16.4447 8.99499 14.875C8.99499 13.3052 9.60661 11.8274 10.717 10.717C11.83 9.60661 13.3052 8.99499 14.875 8.99499C16.4447 8.99499 17.9226 9.60399 19.0329 10.717C20.1433 11.83 20.7549 13.3052 20.7549 14.875C20.7549 16.4447 20.1433 17.9226 19.0329 19.0329Z" fill="#8B8E99"/>
</svg>
