<svg width="36" height="36" viewBox="0 0 36 36" fill="none" xmlns="http://www.w3.org/2000/svg">
<g filter="url(#filter0_d_427_4521)">
<circle cx="17" cy="16" r="16" fill="white"/>
</g>
<path d="M22.4688 16C22.4688 16.174 22.3996 16.341 22.2765 16.464C22.1535 16.5871 21.9865 16.6562 21.8125 16.6562H17.6562V20.8125C17.6562 20.9865 17.5871 21.1535 17.464 21.2765C17.341 21.3996 17.174 21.4688 17 21.4688C16.826 21.4688 16.659 21.3996 16.536 21.2765C16.4129 21.1535 16.3438 20.9865 16.3438 20.8125V16.6562H12.1875C12.0135 16.6562 11.8465 16.5871 11.7235 16.464C11.6004 16.341 11.5312 16.174 11.5312 16C11.5312 15.826 11.6004 15.659 11.7235 15.536C11.8465 15.4129 12.0135 15.3438 12.1875 15.3438H16.3438V11.1875C16.3438 11.0135 16.4129 10.8465 16.536 10.7235C16.659 10.6004 16.826 10.5312 17 10.5312C17.174 10.5312 17.341 10.6004 17.464 10.7235C17.5871 10.8465 17.6562 11.0135 17.6562 11.1875V15.3438H21.8125C21.9865 15.3438 22.1535 15.4129 22.2765 15.536C22.3996 15.659 22.4688 15.826 22.4688 16Z" fill="black"/>
<defs>
<filter id="filter0_d_427_4521" x="0" y="0" width="36" height="36" filterUnits="userSpaceOnUse" color-interpolation-filters="sRGB">
<feFlood flood-opacity="0" result="BackgroundImageFix"/>
<feColorMatrix in="SourceAlpha" type="matrix" values="0 0 0 0 0 0 0 0 0 0 0 0 0 0 0 0 0 0 127 0" result="hardAlpha"/>
<feOffset dx="1" dy="2"/>
<feGaussianBlur stdDeviation="1"/>
<feComposite in2="hardAlpha" operator="out"/>
<feColorMatrix type="matrix" values="0 0 0 0 0 0 0 0 0 0 0 0 0 0 0 0 0 0 0.25 0"/>
<feBlend mode="normal" in2="BackgroundImageFix" result="effect1_dropShadow_427_4521"/>
<feBlend mode="normal" in="SourceGraphic" in2="effect1_dropShadow_427_4521" result="shape"/>
</filter>
</defs>
</svg>
